<svg width="87" height="87" viewBox="0 0 87 87" fill="none" xmlns="http://www.w3.org/2000/svg">
<rect width="87" height="87" fill="#E1138F"/>
<path d="M74.75 6.25V7H79.4713L73.25 13.2213L73.7787 13.75L80 7.52875V12.25H80.75V6.25H74.75Z" fill="white"/>
<path fill-rule="evenodd" clip-rule="evenodd" d="M51.2972 69.879C62.6874 66.5175 71 55.9795 71 43.5C71 28.3122 58.6878 16 43.5 16C28.3122 16 16 28.3122 16 43.5C16 55.9734 24.3045 66.5072 35.6861 69.874C36.1375 69.189 36.1966 68.4749 36.1966 68.4749V63.2961C29.0192 64.9046 27.5319 59.891 27.5319 59.891C26.3917 56.9516 24.7393 56.1694 24.7393 56.1694C22.4401 54.5855 24.9097 54.6235 24.9097 54.6235C27.4556 54.8147 28.7857 57.2575 28.7857 57.2575C31.1618 61.3628 35.1221 59.8956 36.3732 59.2945C36.7527 57.512 37.6893 56.4585 38.6073 55.8388C32.1391 55.1384 28.5032 52.9082 26.6591 49.4551L26.5411 49.2299C26.3605 48.8713 26.1994 48.5003 26.0549 48.1178L25.9692 47.8851C25.3132 46.0373 25.0446 43.9113 25.0446 41.5414C25.0446 38.4023 26.1741 35.8418 28.0243 33.8361C27.7286 33.109 26.7553 30.1812 28.3294 26.2271C28.3294 26.2271 30.7409 25.4602 36.2036 29.2037C38.4953 28.5722 40.9526 28.2611 43.3843 28.2611C45.5945 28.2611 47.8015 28.5182 49.8751 29.0388C55.1688 25.4798 57.5091 26.2263 57.5091 26.2263C58.8357 29.5587 58.3528 32.1619 57.9913 33.334C60.06 35.408 61.3343 38.1336 61.3343 41.5406C61.3343 43.9161 61.1804 46.0464 60.6689 47.8977L60.6032 48.1305C60.4912 48.5063 60.365 48.8715 60.2205 49.2227L60.1236 49.4492C58.5983 52.9255 55.288 55.163 48.3899 55.8501C49.5732 56.657 50.7832 58.1857 50.7832 61.0723V68.4748C50.7832 68.4748 50.8427 69.1924 51.2972 69.879Z" fill="white"/>
</svg>
