<svg width="87" height="87" viewBox="0 0 87 87" fill="none" xmlns="http://www.w3.org/2000/svg">
<rect width="87" height="87" fill="#4CE820"/>
<circle cx="43.5" cy="43.5" r="27.5" fill="white"/>
<path d="M73.9001 49.0099L73.9451 48.7854C68.9296 47.778 63.7826 47.7678 60.6689 47.8978C61.1804 46.0464 61.3342 43.9162 61.3342 41.5407C61.3342 38.1336 60.06 35.4081 57.9913 33.3341C58.3528 32.162 58.8357 29.5588 57.5091 26.2263C57.5091 26.2263 55.1687 25.4799 49.8751 29.0388C47.8014 28.5182 45.5945 28.2612 43.3843 28.2612C40.9525 28.2612 38.4953 28.5722 36.2035 29.2038C30.7409 25.4603 28.3294 26.2271 28.3294 26.2271C26.7553 30.1813 27.7286 33.1091 28.0242 33.8361C26.1741 35.8419 25.0446 38.4023 25.0446 41.5415C25.0446 43.9113 25.3132 46.0374 25.9692 47.8852C22.8289 47.7704 17.8697 47.8145 13.0332 48.786L13.0776 49.0106C17.9433 48.0331 22.9337 47.9991 26.0548 48.1178C26.1994 48.5003 26.3605 48.8714 26.5411 49.23C23.4545 49.3299 18.1842 49.725 13.1335 51.1564L13.1958 51.3762C18.2864 49.9344 23.6025 49.5491 26.6591 49.4552C28.5032 52.9083 32.1391 55.1385 38.6073 55.8388C37.6893 56.4585 36.7527 57.512 36.3732 59.2945C35.1221 59.8956 31.1618 61.3628 28.7857 57.2576C28.7857 57.2576 27.4556 54.8148 24.9097 54.6235C24.9097 54.6235 22.4401 54.5855 24.7392 56.1695C24.7392 56.1695 26.3917 56.9517 27.5319 59.8911C27.5319 59.8911 29.0192 64.9047 36.1966 63.2962V68.475C36.1966 68.475 36.0448 70.3068 34.3731 70.9171C34.3731 70.9171 33.3853 71.6041 34.4495 71.9852C34.4495 71.9852 39.0836 72.3669 39.0836 68.5515V62.9043C39.0836 62.9043 38.8998 60.6647 39.995 59.8863V69.1618C39.995 69.1618 39.9194 71.3748 38.7797 72.2144C38.7797 72.2144 38.0195 73.5877 39.6912 73.2066C39.6912 73.2066 42.8818 72.7488 43.0339 69.0093L43.1062 59.6224H43.8731L43.946 69.0093C44.0978 72.7488 47.2886 73.2066 47.2886 73.2066C48.9598 73.5877 48.2001 72.2144 48.2001 72.2144C47.0606 71.3748 46.9848 69.1618 46.9848 69.1618V59.9663C48.0794 60.8225 47.8962 62.9041 47.8962 62.9041V68.5513C47.8962 72.3669 52.5305 71.985 52.5305 71.985C53.5937 71.6039 52.6067 70.917 52.6067 70.917C50.9351 70.3066 50.7832 68.4748 50.7832 68.4748V61.0723C50.7832 58.1857 49.5732 56.6571 48.3899 55.8502C55.288 55.163 58.5983 52.9256 60.1236 49.4492C63.1451 49.5326 68.5826 49.9024 73.7839 51.3762L73.8457 51.1564C68.6742 49.6911 63.2726 49.312 60.2205 49.2227C60.365 48.8716 60.4912 48.5063 60.6032 48.1306C63.7015 48.0012 68.8728 48.0029 73.9073 49.0133L73.9001 49.0099Z" fill="black"/>
<path d="M54.5875 41.3803C56.0732 42.7324 56.9424 44.3652 56.9424 46.1244C56.9424 54.3382 50.8469 54.5608 43.3284 54.5608C35.8087 54.5608 29.7139 53.4234 29.7139 46.1244C29.7139 44.3768 30.5708 42.7542 32.0381 41.4076C34.4859 39.1634 38.6284 40.3517 43.3283 40.3517C48.0071 40.3511 52.1355 39.1506 54.5867 41.3795L54.5875 41.3803Z" fill="#F4CBB2"/>
<path d="M38.8007 46.542C38.8007 48.8045 37.5324 50.6383 35.968 50.6383C34.4035 50.6383 33.1353 48.8045 33.1353 46.542C33.1353 44.2799 34.4035 42.4468 35.968 42.4468C37.5324 42.4484 38.8007 44.2802 38.8007 46.542V46.542ZM53.9992 46.542C53.9992 48.8045 52.7309 50.6383 51.1665 50.6383C49.602 50.6383 48.3337 48.8045 48.3337 46.542C48.3337 44.2799 49.602 42.4468 51.1665 42.4468C52.7309 42.4484 53.9992 44.2802 53.9992 46.542V46.542Z" fill="white"/>
<path d="M37.8927 46.5942C37.8927 48.1023 37.0461 49.3244 36.0041 49.3244C34.9622 49.3244 34.1157 48.1023 34.1157 46.5942C34.1157 45.0856 34.9615 43.8628 36.0041 43.8628C37.0455 43.8628 37.8921 45.0851 37.8921 46.5935L37.8927 46.5942ZM53.0896 46.5942C53.0896 48.1023 52.243 49.3244 51.201 49.3244C50.159 49.3244 49.3126 48.1023 49.3126 46.5942C49.3126 45.0856 50.1584 43.8628 51.201 43.8628C52.2424 43.8628 53.089 45.0851 53.089 46.5935L53.0896 46.5942Z" fill="#AD5C51"/>
<path d="M43.3714 50.8918C43.7626 50.8918 44.0798 50.5733 44.0798 50.1803C44.0798 49.7873 43.7626 49.4688 43.3714 49.4688C42.9802 49.4688 42.6631 49.7873 42.6631 50.1803C42.6631 50.5733 42.9802 50.8918 43.3714 50.8918Z" fill="#AD5C51"/>
<path d="M41.7181 51.9798C41.6762 51.8605 41.7387 51.73 41.8567 51.688C41.9753 51.6459 42.1055 51.7087 42.1472 51.8272C42.3297 52.3442 42.8179 52.6915 43.3625 52.6915C43.9072 52.6915 44.3953 52.3444 44.5779 51.8272C44.6197 51.7079 44.7496 51.6459 44.8684 51.688C44.9871 51.73 45.0488 51.8605 45.0071 51.9798C44.761 52.6789 44.0995 53.1486 43.3625 53.1486C42.6255 53.1486 41.9655 52.6813 41.7192 51.9812L41.7181 51.9798Z" fill="#AD5C51"/>
<path d="M26.0112 55.2345C26.0112 55.4243 25.7897 55.5776 25.5171 55.5776C25.2446 55.5776 25.0229 55.4243 25.0229 55.2345C25.0229 55.0445 25.2446 54.8906 25.5171 54.8906C25.7897 54.8906 26.0112 55.0442 26.0112 55.235V55.2345ZM27.3793 55.9976C27.3793 56.1874 27.1578 56.3407 26.8851 56.3407C26.6127 56.3407 26.391 56.1874 26.391 55.9976C26.391 55.8077 26.6127 55.6537 26.8851 55.6537C27.1578 55.6537 27.3793 55.8073 27.3793 55.9981V55.9976ZM28.2151 56.9903C28.2151 57.1801 27.9936 57.3334 27.721 57.3334C27.4485 57.3334 27.2268 57.1801 27.2268 56.9903C27.2268 56.8003 27.4485 56.6464 27.721 56.6464C27.9936 56.6464 28.2151 56.8 28.2151 56.9908V56.9903ZM28.9748 58.135C28.9748 58.3248 28.7533 58.4781 28.4806 58.4781C28.2081 58.4781 27.9865 58.3248 27.9865 58.135C27.9865 57.945 28.2081 57.7911 28.4806 57.7911C28.7533 57.7911 28.9748 57.9447 28.9748 58.1355V58.135ZM29.8098 59.2037C29.8098 59.3935 29.5883 59.5468 29.3156 59.5468C29.0432 59.5468 28.8215 59.3935 28.8215 59.2037C28.8215 59.0137 29.0432 58.8598 29.3156 58.8598C29.5883 58.8598 29.8098 59.0134 29.8098 59.2042V59.2037ZM30.9509 60.1188C30.9509 60.3086 30.7294 60.4618 30.4568 60.4618C30.1843 60.4618 29.9627 60.3086 29.9627 60.1188C29.9627 59.9288 30.1843 59.7749 30.4568 59.7749C30.7294 59.7749 30.9509 59.9285 30.9509 60.1192V60.1188ZM32.5459 60.7299C32.5459 60.9197 32.3244 61.073 32.0518 61.073C31.7793 61.073 31.5577 60.9197 31.5577 60.7299C31.5577 60.5399 31.7793 60.386 32.0518 60.386C32.3244 60.386 32.5459 60.5396 32.5459 60.7304V60.7299ZM34.1345 60.7299C34.1345 60.9197 33.913 61.073 33.6404 61.073C33.3679 61.073 33.1462 60.9197 33.1462 60.7299C33.1462 60.5399 33.3679 60.386 33.6404 60.386C33.913 60.386 34.1345 60.5396 34.1345 60.7304V60.7299ZM35.7456 60.4647C35.7456 60.6546 35.5241 60.8078 35.2515 60.8078C34.979 60.8078 34.7574 60.6546 34.7574 60.4647C34.7574 60.2748 34.979 60.1209 35.2515 60.1209C35.5241 60.1209 35.7456 60.2745 35.7456 60.4652V60.4647Z" fill="#C3E4D8"/>
<path d="M24.1969 56.2524L23.7034 57.9796C23.7034 57.9796 23.5747 58.6039 24.1605 58.7146C24.7721 58.7027 24.7216 58.1282 24.6793 57.9416L24.1969 56.2524Z" fill="#9CDAF1"/>
<path d="M74.75 6.25V7H79.4713L73.25 13.2213L73.7787 13.75L80 7.52875V12.25H80.75V6.25H74.75Z" fill="white"/>
</svg>
