<svg width="87" height="53" viewBox="0 0 87 53" fill="none" xmlns="http://www.w3.org/2000/svg">
<g clip-path="url(#clip0_86_713)">
<path d="M44.3954 23.0522L47.012 22.8831C47.0717 23.3109 47.1812 23.6293 47.3603 23.8581C47.6488 24.2163 48.0468 24.3954 48.5741 24.3954C48.9621 24.3954 49.2705 24.3059 49.4795 24.1168C49.6785 23.9676 49.7979 23.7288 49.7979 23.4801C49.7979 23.2413 49.6884 23.0124 49.4994 22.8632C49.3004 22.6841 48.8328 22.505 48.0965 22.3458C46.8927 22.0772 46.0271 21.719 45.5196 21.2614C45.0122 20.8335 44.7237 20.2067 44.7436 19.5401C44.7436 19.0825 44.8829 18.6248 45.1416 18.2467C45.44 17.8189 45.848 17.4806 46.3355 17.2916C46.8628 17.0628 47.5991 16.9434 48.5243 16.9434C49.6586 16.9434 50.5242 17.1523 51.1211 17.5801C51.7181 17.998 52.0762 18.6745 52.1857 19.5998L49.5989 19.7491C49.5292 19.3511 49.3899 19.0626 49.1611 18.8735C48.9323 18.6845 48.6338 18.5949 48.2458 18.5949C47.9274 18.5949 47.6886 18.6646 47.5294 18.7939C47.3802 18.9133 47.2807 19.0924 47.2906 19.2914C47.2906 19.4406 47.3702 19.5799 47.4896 19.6695C47.619 19.7889 47.9274 19.8983 48.4149 19.9978C49.6188 20.2565 50.4744 20.5152 51.0017 20.7838C51.529 21.0524 51.9071 21.3808 52.1359 21.7688C52.3747 22.1668 52.4941 22.6244 52.4842 23.092C52.4842 23.6492 52.325 24.2064 52.0066 24.674C51.6783 25.1615 51.2206 25.5396 50.6833 25.7684C50.1162 26.0171 49.3999 26.1465 48.5442 26.1465C47.0319 26.1465 45.9873 25.858 45.4003 25.2709C44.8132 24.6839 44.465 23.9477 44.3954 23.0522ZM16.6268 25.9972V17.1025H21.2134C22.0591 17.1025 22.7158 17.1722 23.1635 17.3214C23.6013 17.4607 23.9893 17.7493 24.248 18.1373C24.5365 18.5651 24.6758 19.0626 24.6659 19.5799C24.6957 20.4555 24.248 21.2912 23.4819 21.729C23.1834 21.8981 22.8551 22.0175 22.5168 22.0772C22.7655 22.1469 23.0143 22.2662 23.2332 22.4055C23.4023 22.5448 23.5416 22.704 23.6709 22.8732C23.8202 23.0423 23.9495 23.2313 24.059 23.4303L25.3922 26.0072H22.2681L20.7956 23.2711C20.6065 22.9229 20.4473 22.6941 20.2981 22.5846C20.0991 22.4453 19.8603 22.3757 19.6216 22.3757H19.3828V25.9873H16.6268V25.9972ZM19.3828 20.7042H20.5468C20.7956 20.6843 21.0344 20.6445 21.2731 20.5848C21.4522 20.555 21.6114 20.4555 21.7209 20.3062C21.9895 19.9481 21.9497 19.4406 21.6214 19.1322C21.4423 18.983 21.0941 18.9034 20.5966 18.9034H19.3828V20.7042ZM16 33.6184L18.6167 33.4493C18.6764 33.8771 18.7858 34.1955 18.9649 34.4243C19.2435 34.7825 19.6514 34.9715 20.1787 34.9715C20.5667 34.9715 20.8752 34.882 21.0841 34.693C21.2831 34.5338 21.4025 34.3049 21.4025 34.0562C21.4025 33.8174 21.293 33.5886 21.104 33.4393C20.905 33.2602 20.4374 33.0812 19.6912 32.922C18.4873 32.6533 17.6217 32.2952 17.1143 31.8375C16.6069 31.4097 16.3184 30.7829 16.3383 30.1163C16.3383 29.6586 16.4776 29.2009 16.7362 28.8229C17.0347 28.395 17.4427 28.0568 17.9302 27.8677C18.4575 27.6389 19.1937 27.5195 20.119 27.5195C21.2532 27.5195 22.1188 27.7284 22.7158 28.1562C23.3128 28.5841 23.661 29.2507 23.7704 30.176L21.1836 30.3252C21.114 29.9272 20.9747 29.6387 20.7458 29.4497C20.5269 29.2606 20.2185 29.1711 19.8305 29.181C19.5121 29.181 19.2733 29.2507 19.1141 29.39C18.9549 29.5094 18.8654 29.6884 18.8754 29.8874C18.8754 30.0367 18.9549 30.176 19.0743 30.2655C19.2037 30.3849 19.5121 30.4943 19.9996 30.5938C21.2035 30.8525 22.0591 31.1112 22.5865 31.3798C23.1138 31.6485 23.4918 31.9768 23.7207 32.3648C23.9595 32.7628 24.0789 33.2205 24.0789 33.6781C24.0789 34.2353 23.9097 34.7825 23.6013 35.2501C23.273 35.7376 22.8153 36.1157 22.278 36.3445C21.7109 36.5933 20.9946 36.7226 20.1389 36.7226C18.6266 36.7226 17.5819 36.4341 16.9949 35.8471C16.4079 35.2501 16.0796 34.5139 16 33.6184V33.6184Z" fill="black"/>
<path d="M29.233 32.922L31.6408 33.6483C31.5114 34.2552 31.2428 34.8323 30.8747 35.3397C30.5364 35.7874 30.0887 36.1356 29.5813 36.3645C29.0639 36.5933 28.4072 36.7127 27.6113 36.7127C26.6462 36.7127 25.8503 36.5734 25.2434 36.2948C24.6265 36.0163 24.0992 35.5188 23.6515 34.8124C23.2037 34.106 22.9849 33.2006 22.9849 32.0962C22.9849 30.6237 23.3729 29.4895 24.1589 28.7035C24.9449 27.9175 26.0493 27.5195 27.482 27.5195C28.6062 27.5195 29.4818 27.7484 30.1285 28.1961C30.7652 28.6538 31.2428 29.3502 31.5612 30.2854L29.1335 30.8227C29.0738 30.6138 28.9843 30.4048 28.8649 30.2257C28.7157 30.0168 28.5266 29.8576 28.2978 29.7382C28.069 29.6188 27.8103 29.5691 27.5516 29.5691C26.9248 29.5691 26.4472 29.8178 26.1189 30.3252C25.8702 30.6934 25.7408 31.2804 25.7408 32.0763C25.7408 33.0613 25.8901 33.7379 26.1885 34.106C26.487 34.4741 26.9049 34.6532 27.4521 34.6532C27.9794 34.6532 28.3774 34.504 28.646 34.2154C28.9147 33.907 29.1136 33.4792 29.233 32.922ZM34.8544 27.6688H37.6004V30.7829H40.6051V27.6688H43.371V36.5635H40.6051V32.9618H37.6004V36.5635H34.8544V27.6688V27.6688Z" fill="black"/>
<path d="M42.9922 32.1163C42.9922 30.6637 43.4001 29.5295 44.206 28.7236C45.0119 27.9177 46.1461 27.5098 47.5888 27.5098C49.0712 27.5098 50.2054 27.9077 51.0113 28.7037C51.8172 29.4996 52.2152 30.614 52.2152 32.0467C52.2152 33.0913 52.0361 33.937 51.6879 34.6036C51.3496 35.2603 50.8223 35.7975 50.1756 36.1557C49.509 36.5239 48.6832 36.7129 47.6982 36.7129C46.6933 36.7129 45.8675 36.5537 45.2109 36.2353C44.5343 35.897 43.9772 35.3697 43.609 34.723C43.2011 34.0266 42.9922 33.161 42.9922 32.1163ZM45.7382 32.1263C45.7382 33.0217 45.9073 33.6684 46.2357 34.0664C46.564 34.4544 47.0217 34.6534 47.5987 34.6534C48.1857 34.6534 48.6434 34.4643 48.9717 34.0763C49.3001 33.6883 49.4592 33.0018 49.4592 32.0069C49.4592 31.1711 49.2901 30.5543 48.9518 30.1762C48.6136 29.7882 48.1559 29.5991 47.5788 29.5991C47.0714 29.5792 46.5839 29.7981 46.2456 30.1861C45.9073 30.5742 45.7382 31.2209 45.7382 32.1263V32.1263ZM55.0309 32.1163C55.0309 30.6637 55.4388 29.5295 56.2447 28.7236C57.0506 27.9177 58.1848 27.5098 59.6275 27.5098C61.1099 27.5098 62.2541 27.9077 63.05 28.7037C63.846 29.4996 64.2539 30.614 64.2539 32.0467C64.2539 33.0913 64.0748 33.937 63.7266 34.6036C63.3883 35.2603 62.861 35.7975 62.2143 36.1557C61.5477 36.5239 60.7219 36.7129 59.7369 36.7129C58.732 36.7129 57.9062 36.5537 57.2496 36.2353C56.573 35.897 56.0159 35.3697 55.6477 34.723C55.2398 34.0266 55.0309 33.161 55.0309 32.1163V32.1163ZM57.7769 32.1263C57.7769 33.0217 57.946 33.6684 58.2743 34.0664C58.6027 34.4544 59.0603 34.6534 59.6374 34.6534C60.2244 34.6534 60.6821 34.4643 61.0104 34.0763C61.3387 33.6883 61.4979 33.0018 61.4979 32.0069C61.4979 31.1711 61.3288 30.5543 60.9905 30.1762C60.6522 29.7882 60.1946 29.5991 59.6175 29.5991C59.1101 29.5792 58.6126 29.7981 58.2843 30.1861C57.946 30.5742 57.7769 31.2209 57.7769 32.1263V32.1263Z" fill="black"/>
<path d="M63.966 27.6685H66.712V34.3743H71.0002V36.5632H63.9561V27.6685H63.966Z" fill="black"/>
<path d="M60.9387 27.1558C63.7033 25.0724 64.5559 21.5407 62.8428 19.2676C61.1298 16.9944 57.5 16.8406 54.7353 18.924C51.9707 21.0074 51.1182 24.539 52.8312 26.8122C54.5442 29.0854 58.174 29.2392 60.9387 27.1558Z" fill="white"/>
<path d="M60.9397 27.1548C63.7043 25.0714 64.5568 21.5398 62.8438 19.2666C61.1308 16.9935 57.501 16.8396 54.7363 18.923C51.9717 21.0064 51.1191 24.5381 52.8321 26.8112C54.5452 29.0844 58.175 29.2382 60.9397 27.1548Z" fill="white"/>
<path d="M60.9397 27.1548C63.7043 25.0714 64.5568 21.5398 62.8438 19.2666C61.1308 16.9935 57.501 16.8396 54.7363 18.923C51.9717 21.0064 51.1191 24.5381 52.8321 26.8112C54.5452 29.0844 58.175 29.2382 60.9397 27.1548Z" stroke="black" stroke-width="0.397973" stroke-miterlimit="10"/>
<path d="M55.0419 22.3858L56.0368 21.6893L57.2606 23.4305C57.4695 23.709 57.6287 24.0075 57.7481 24.3358C57.8177 24.5846 57.7978 24.8532 57.6983 25.092C57.569 25.3905 57.3601 25.6392 57.0815 25.8183C56.7532 26.0471 56.4746 26.1765 56.2358 26.2163C56.007 26.2561 55.7682 26.2163 55.5493 26.1168C55.3105 25.9974 55.1016 25.8282 54.9424 25.6094L55.798 24.8134C55.8677 24.9228 55.9572 25.0223 56.0567 25.1019C56.1264 25.1517 56.2059 25.1815 56.2955 25.1815C56.3651 25.1815 56.4348 25.1517 56.4845 25.1119C56.584 25.0522 56.6537 24.9328 56.6437 24.8134C56.6139 24.6443 56.5442 24.4751 56.4348 24.3458L55.0419 22.3858V22.3858ZM58.0267 23.4901L58.9321 22.7738C59.0316 22.8932 59.1609 22.9827 59.3002 23.0325C59.4992 23.0922 59.7081 23.0524 59.8772 22.923C59.9966 22.8434 60.0961 22.734 60.1359 22.5947C60.1956 22.4156 60.0961 22.2166 59.917 22.1569C59.8872 22.147 59.8573 22.137 59.8275 22.137C59.7081 22.1271 59.4992 22.1768 59.1907 22.3062C58.6833 22.5151 58.2854 22.5947 57.9869 22.5649C57.6983 22.535 57.4297 22.3858 57.2705 22.137C57.1511 21.9679 57.0914 21.7689 57.0815 21.5699C57.0815 21.3411 57.1412 21.1123 57.2705 20.9232C57.4596 20.6546 57.6884 20.4258 57.967 20.2467C58.3848 19.9581 58.753 19.8188 59.0714 19.8188C59.3897 19.8188 59.6882 19.9681 59.9668 20.2765L59.0714 20.9829C58.8923 20.7541 58.554 20.7043 58.3252 20.8834L58.2953 20.9133C58.1958 20.973 58.1262 21.0625 58.0864 21.172C58.0565 21.2515 58.0764 21.3411 58.1262 21.4107C58.166 21.4605 58.2257 21.5003 58.2953 21.5003C58.3749 21.5102 58.5142 21.4704 58.7132 21.3809C59.2106 21.172 59.5887 21.0526 59.8474 21.0128C60.0663 20.973 60.2951 20.9929 60.5041 21.0824C60.6931 21.162 60.8523 21.3013 60.9617 21.4704C61.101 21.6694 61.1806 21.9082 61.1906 22.1569C61.2005 22.4156 61.1309 22.6644 60.9916 22.8832C60.8125 23.1519 60.5836 23.3807 60.315 23.5598C59.7678 23.9379 59.3201 24.0971 58.9619 24.0374C58.5739 23.9777 58.2555 23.7787 58.0267 23.4901V23.4901Z" fill="black"/>
</g>
<path d="M74.75 6.25V7H79.4713L73.25 13.2213L73.7787 13.75L80 7.52875V12.25H80.75V6.25H74.75Z" fill="black"/>
<defs>
<clipPath id="clip0_86_713">
<rect width="54.9999" height="20.426" fill="white" transform="translate(16 16.2866)"/>
</clipPath>
</defs>
</svg>
